<?xml version="1.0" encoding="UTF-8" standalone="no"?> <!-- Created with Vectornator for iOS (http://vectornator.io/) --><!DOCTYPE svg PUBLIC "-//W3C//DTD SVG 1.1//EN" "http://www.w3.org/Graphics/SVG/1.1/DTD/svg11.dtd">
<svg height="100%" version="1.1" width="100%" xmlns="http://www.w3.org/2000/svg" xmlns:vectornator="http://vectornator.io" viewBox="0 0 1080 1080" xml:space="preserve" xmlns:xlink="http://www.w3.org/1999/xlink" style="fill-rule:nonzero;clip-rule:evenodd;stroke-linecap:round;stroke-linejoin:round;">
<metadata>
<vectornator:setting key="WDIsolateActiveLayer" value="false"/>
<vectornator:setting value="false" key="VNPencilOnly"/>
<vectornator:setting key="WDDisplayWhiteBackground" value="false"/>
<vectornator:setting value="true" key="WDGuidesVisible"/>
<vectornator:setting value="false" key="WDOutlineMode"/>
<vectornator:setting key="VNDimensionsVisible" value="true"/>
<vectornator:setting key="WDDynamicGuides" value="false"/>
<vectornator:setting key="WDCMYKEnabledKey" value="false"/>
<vectornator:setting value="Pixels" key="WDUnits"/>
<vectornator:setting value="false" key="WDSnapToEdges"/>
<vectornator:setting value="true" key="VNSnapToGuides"/>
<vectornator:setting value="false" key="IsTimeLapseWatermarkDisabled"/>
<vectornator:setting key="WDRulersVisible" value="true"/>
<vectornator:setting key="WDSnapToPoints" value="false"/>
<vectornator:setting value="false" key="WDSnapToGrid"/>
<vectornator:setting key="UndoHistoryDisabled" value="false"/>
</metadata>
<defs/>
<g vectornator:layerName="tinotech white" visibility="hidden" id="tinotech white">
<path fill="#ffffff" d="M-36.1818-32.35L1124.43-32.35L1124.43+1134.32L-36.1818+1134.32L-36.1818-32.35Z" opacity="1"/>
<path fill="#000000" opacity="1" d="M296.575+518.96L296.575+558.61C296.575+561.296+297.203+563.225+298.46+564.395C299.717+565.565+301.862+566.15+304.895+566.15L313.995+566.15L313.995+578.5L302.295+578.5C295.622+578.5+290.508+576.94+286.955+573.82C283.402+570.7+281.625+565.63+281.625+558.61L281.625+518.96L281.625+506.87L281.625+489.06L296.575+489.06L296.575+506.87L313.995+506.87L313.995+518.96L296.575+518.96Z"/>
<path opacity="1" fill="#000000" d="M342.465+506.87L342.465+578.5L327.645+578.5L327.645+506.87L342.465+506.87Z"/>
<path fill="#000000" d="M358.958+578.452L358.958+541.939C358.958+531.884+362.293+523.291+368.963+516.159C375.633+509.004+383.681+505.427+393.108+505.427C402.513+505.427+410.55+509.004+417.22+516.159C423.912+523.291+427.258+531.884+427.258+541.939L427.258+578.452L410.183+578.452L410.183+541.939C410.183+536.924+408.505+532.633+405.147+529.067C401.813+525.478+397.799+523.683+393.108+523.683C388.395+523.683+384.371+525.478+381.036+529.067C377.701+532.633+376.033+536.924+376.033+541.939L376.033+578.452L358.958+578.452Z" opacity="1"/>
<path fill="#000000" opacity="1" d="M477.405+579.67C470.645+579.67+464.535+578.131+459.075+575.055C453.615+571.978+449.325+567.645+446.205+562.055C443.085+556.465+441.525+549.986+441.525+542.62C441.525+535.34+443.128+528.883+446.335+523.25C449.542+517.616+453.918+513.283+459.465+510.25C465.012+507.216+471.208+505.7+478.055+505.7C484.902+505.7+491.098+507.216+496.645+510.25C502.192+513.283+506.568+517.616+509.775+523.25C512.982+528.883+514.585+535.34+514.585+542.62C514.585+549.9+512.938+556.356+509.645+561.99C506.352+567.623+501.867+571.978+496.19+575.055C490.513+578.131+484.252+579.67+477.405+579.67ZM477.405+566.8C481.218+566.8+484.793+565.89+488.13+564.07C491.467+562.25+494.175+559.52+496.255+555.88C498.335+552.24+499.375+547.82+499.375+542.62C499.375+537.42+498.378+533.021+496.385+529.425C494.392+525.828+491.748+523.12+488.455+521.3C485.162+519.48+481.608+518.57+477.795+518.57C473.982+518.57+470.45+519.48+467.2+521.3C463.95+523.12+461.372+525.828+459.465+529.425C457.558+533.021+456.605+537.42+456.605+542.62C456.605+550.333+458.577+556.291+462.52+560.495C466.463+564.698+471.425+566.8+477.405+566.8Z"/>
<path fill="#000000" d="M546.565+518.96L546.565+558.61C546.565+561.296+547.193+563.225+548.45+564.395C549.707+565.565+551.852+566.15+554.885+566.15L563.985+566.15L563.985+578.5L552.285+578.5C545.612+578.5+540.498+576.94+536.945+573.82C533.392+570.7+531.615+565.63+531.615+558.61L531.615+518.96L531.615+506.87L531.615+489.06L546.565+489.06L546.565+506.87L563.985+506.87L563.985+518.96L546.565+518.96Z" opacity="1"/>
<path d="M643.285+540.93C643.285+543.616+643.112+546.043+642.765+548.21L588.035+548.21C588.468+553.93+590.592+558.523+594.405+561.99C598.218+565.456+602.898+567.19+608.445+567.19C616.418+567.19+622.052+563.853+625.345+557.18L641.335+557.18C639.168+563.766+635.247+569.161+629.57+573.365C623.893+577.568+616.852+579.67+608.445+579.67C601.598+579.67+595.467+578.131+590.05+575.055C584.633+571.978+580.387+567.645+577.31+562.055C574.233+556.465+572.695+549.986+572.695+542.62C572.695+535.253+574.19+528.775+577.18+523.185C580.17+517.595+584.373+513.283+589.79+510.25C595.207+507.216+601.425+505.7+608.445+505.7C615.205+505.7+621.228+507.173+626.515+510.12C631.802+513.066+635.918+517.205+638.865+522.535C641.812+527.865+643.285+533.996+643.285+540.93ZM627.815+536.25C627.728+530.79+625.778+526.413+621.965+523.12C618.152+519.826+613.428+518.18+607.795+518.18C602.682+518.18+598.305+519.805+594.665+523.055C591.025+526.305+588.858+530.703+588.165+536.25L627.815+536.25Z" fill="#000000" opacity="1"/>
<path d="M652.905+542.62C652.905+535.253+654.4+528.775+657.39+523.185C660.38+517.595+664.518+513.283+669.805+510.25C675.092+507.216+681.158+505.7+688.005+505.7C696.672+505.7+703.843+507.758+709.52+511.875C715.197+515.991+719.032+521.863+721.025+529.49L705.035+529.49C703.735+525.936+701.655+523.163+698.795+521.17C695.935+519.176+692.338+518.18+688.005+518.18C681.938+518.18+677.107+520.325+673.51+524.615C669.913+528.905+668.115+534.906+668.115+542.62C668.115+550.333+669.913+556.356+673.51+560.69C677.107+565.023+681.938+567.19+688.005+567.19C696.585+567.19+702.262+563.42+705.035+555.88L721.025+555.88C718.945+563.16+715.045+568.945+709.325+573.235C703.605+577.525+696.498+579.67+688.005+579.67C681.158+579.67+675.092+578.131+669.805+575.055C664.518+571.978+660.38+567.645+657.39+562.055C654.4+556.465+652.905+549.986+652.905+542.62Z" opacity="1" fill="#000000"/>
<path opacity="1" fill="#000000" d="M772.895+505.7C778.355+505.7+783.23+506.87+787.52+509.21C791.81+511.55+795.19+515.016+797.66+519.61C800.13+524.203+801.365+529.75+801.365+536.25L801.365+578.5L786.675+578.5L786.675+538.46C786.675+532.046+785.072+527.128+781.865+523.705C778.658+520.281+774.282+518.57+768.735+518.57C763.188+518.57+758.79+520.281+755.54+523.705C752.29+527.128+750.665+532.046+750.665+538.46L750.665+578.5L735.845+578.5L735.845+482.3L750.665+482.3L750.665+515.19C753.178+512.156+756.363+509.816+760.22+508.17C764.077+506.523+768.302+505.7+772.895+505.7Z"/>
</g>
<g id="tinotech" visibility="hidden" vectornator:layerName="tinotech">
<path d="M-36.1818-32.35L1124.43-32.35L1124.43+1134.32L-36.1818+1134.32L-36.1818-32.35Z" opacity="1" fill="#000000"/>
<path opacity="1" d="M296.575+518.96L296.575+558.61C296.575+561.296+297.203+563.225+298.46+564.395C299.717+565.565+301.862+566.15+304.895+566.15L313.995+566.15L313.995+578.5L302.295+578.5C295.622+578.5+290.508+576.94+286.955+573.82C283.402+570.7+281.625+565.63+281.625+558.61L281.625+518.96L281.625+506.87L281.625+489.06L296.575+489.06L296.575+506.87L313.995+506.87L313.995+518.96L296.575+518.96Z" fill="#ffffff"/>
<path fill="#ffffff" opacity="1" d="M342.465+506.87L342.465+578.5L327.645+578.5L327.645+506.87L342.465+506.87Z"/>
<path fill="#ffffff" opacity="1" d="M358.958+578.452L358.958+541.939C358.958+531.884+362.293+523.291+368.963+516.159C375.633+509.004+383.681+505.427+393.108+505.427C402.513+505.427+410.55+509.004+417.22+516.159C423.912+523.291+427.258+531.884+427.258+541.939L427.258+578.452L410.183+578.452L410.183+541.939C410.183+536.924+408.505+532.633+405.147+529.067C401.813+525.478+397.799+523.683+393.108+523.683C388.395+523.683+384.371+525.478+381.036+529.067C377.701+532.633+376.033+536.924+376.033+541.939L376.033+578.452L358.958+578.452Z"/>
<path fill="#ffffff" d="M477.405+579.67C470.645+579.67+464.535+578.131+459.075+575.055C453.615+571.978+449.325+567.645+446.205+562.055C443.085+556.465+441.525+549.986+441.525+542.62C441.525+535.34+443.128+528.883+446.335+523.25C449.542+517.616+453.918+513.283+459.465+510.25C465.012+507.216+471.208+505.7+478.055+505.7C484.902+505.7+491.098+507.216+496.645+510.25C502.192+513.283+506.568+517.616+509.775+523.25C512.982+528.883+514.585+535.34+514.585+542.62C514.585+549.9+512.938+556.356+509.645+561.99C506.352+567.623+501.867+571.978+496.19+575.055C490.513+578.131+484.252+579.67+477.405+579.67ZM477.405+566.8C481.218+566.8+484.793+565.89+488.13+564.07C491.467+562.25+494.175+559.52+496.255+555.88C498.335+552.24+499.375+547.82+499.375+542.62C499.375+537.42+498.378+533.021+496.385+529.425C494.392+525.828+491.748+523.12+488.455+521.3C485.162+519.48+481.608+518.57+477.795+518.57C473.982+518.57+470.45+519.48+467.2+521.3C463.95+523.12+461.372+525.828+459.465+529.425C457.558+533.021+456.605+537.42+456.605+542.62C456.605+550.333+458.577+556.291+462.52+560.495C466.463+564.698+471.425+566.8+477.405+566.8Z" opacity="1"/>
<path opacity="1" fill="#ffffff" d="M546.565+518.96L546.565+558.61C546.565+561.296+547.193+563.225+548.45+564.395C549.707+565.565+551.852+566.15+554.885+566.15L563.985+566.15L563.985+578.5L552.285+578.5C545.612+578.5+540.498+576.94+536.945+573.82C533.392+570.7+531.615+565.63+531.615+558.61L531.615+518.96L531.615+506.87L531.615+489.06L546.565+489.06L546.565+506.87L563.985+506.87L563.985+518.96L546.565+518.96Z"/>
<path opacity="1" fill="#ffffff" d="M643.285+540.93C643.285+543.616+643.112+546.043+642.765+548.21L588.035+548.21C588.468+553.93+590.592+558.523+594.405+561.99C598.218+565.456+602.898+567.19+608.445+567.19C616.418+567.19+622.052+563.853+625.345+557.18L641.335+557.18C639.168+563.766+635.247+569.161+629.57+573.365C623.893+577.568+616.852+579.67+608.445+579.67C601.598+579.67+595.467+578.131+590.05+575.055C584.633+571.978+580.387+567.645+577.31+562.055C574.233+556.465+572.695+549.986+572.695+542.62C572.695+535.253+574.19+528.775+577.18+523.185C580.17+517.595+584.373+513.283+589.79+510.25C595.207+507.216+601.425+505.7+608.445+505.7C615.205+505.7+621.228+507.173+626.515+510.12C631.802+513.066+635.918+517.205+638.865+522.535C641.812+527.865+643.285+533.996+643.285+540.93ZM627.815+536.25C627.728+530.79+625.778+526.413+621.965+523.12C618.152+519.826+613.428+518.18+607.795+518.18C602.682+518.18+598.305+519.805+594.665+523.055C591.025+526.305+588.858+530.703+588.165+536.25L627.815+536.25Z"/>
<path opacity="1" fill="#ffffff" d="M652.905+542.62C652.905+535.253+654.4+528.775+657.39+523.185C660.38+517.595+664.518+513.283+669.805+510.25C675.092+507.216+681.158+505.7+688.005+505.7C696.672+505.7+703.843+507.758+709.52+511.875C715.197+515.991+719.032+521.863+721.025+529.49L705.035+529.49C703.735+525.936+701.655+523.163+698.795+521.17C695.935+519.176+692.338+518.18+688.005+518.18C681.938+518.18+677.107+520.325+673.51+524.615C669.913+528.905+668.115+534.906+668.115+542.62C668.115+550.333+669.913+556.356+673.51+560.69C677.107+565.023+681.938+567.19+688.005+567.19C696.585+567.19+702.262+563.42+705.035+555.88L721.025+555.88C718.945+563.16+715.045+568.945+709.325+573.235C703.605+577.525+696.498+579.67+688.005+579.67C681.158+579.67+675.092+578.131+669.805+575.055C664.518+571.978+660.38+567.645+657.39+562.055C654.4+556.465+652.905+549.986+652.905+542.62Z"/>
<path opacity="1" d="M772.895+505.7C778.355+505.7+783.23+506.87+787.52+509.21C791.81+511.55+795.19+515.016+797.66+519.61C800.13+524.203+801.365+529.75+801.365+536.25L801.365+578.5L786.675+578.5L786.675+538.46C786.675+532.046+785.072+527.128+781.865+523.705C778.658+520.281+774.282+518.57+768.735+518.57C763.188+518.57+758.79+520.281+755.54+523.705C752.29+527.128+750.665+532.046+750.665+538.46L750.665+578.5L735.845+578.5L735.845+482.3L750.665+482.3L750.665+515.19C753.178+512.156+756.363+509.816+760.22+508.17C764.077+506.523+768.302+505.7+772.895+505.7Z" fill="#ffffff"/>
</g>
<g id="tinotech blue text" visibility="hidden" vectornator:layerName="tinotech blue text">
<path d="M-36.1818-32.35L1124.43-32.35L1124.43+1134.32L-36.1818+1134.32L-36.1818-32.35Z" fill="#000000" opacity="1"/>
<path fill="#76daf9" d="M296.575+518.96L296.575+558.61C296.575+561.296+297.203+563.225+298.46+564.395C299.717+565.565+301.862+566.15+304.895+566.15L313.995+566.15L313.995+578.5L302.295+578.5C295.622+578.5+290.508+576.94+286.955+573.82C283.402+570.7+281.625+565.63+281.625+558.61L281.625+518.96L281.625+506.87L281.625+489.06L296.575+489.06L296.575+506.87L313.995+506.87L313.995+518.96L296.575+518.96Z" opacity="1"/>
<path fill="#76daf9" d="M342.465+506.87L342.465+578.5L327.645+578.5L327.645+506.87L342.465+506.87Z" opacity="1"/>
<path opacity="1" fill="#76daf9" d="M358.958+578.452L358.958+541.939C358.958+531.884+362.293+523.291+368.963+516.159C375.633+509.004+383.681+505.427+393.108+505.427C402.513+505.427+410.55+509.004+417.22+516.159C423.912+523.291+427.258+531.884+427.258+541.939L427.258+578.452L410.183+578.452L410.183+541.939C410.183+536.924+408.505+532.633+405.147+529.067C401.813+525.478+397.799+523.683+393.108+523.683C388.395+523.683+384.371+525.478+381.036+529.067C377.701+532.633+376.033+536.924+376.033+541.939L376.033+578.452L358.958+578.452Z"/>
<path opacity="1" d="M477.405+579.67C470.645+579.67+464.535+578.131+459.075+575.055C453.615+571.978+449.325+567.645+446.205+562.055C443.085+556.465+441.525+549.986+441.525+542.62C441.525+535.34+443.128+528.883+446.335+523.25C449.542+517.616+453.918+513.283+459.465+510.25C465.012+507.216+471.208+505.7+478.055+505.7C484.902+505.7+491.098+507.216+496.645+510.25C502.192+513.283+506.568+517.616+509.775+523.25C512.982+528.883+514.585+535.34+514.585+542.62C514.585+549.9+512.938+556.356+509.645+561.99C506.352+567.623+501.867+571.978+496.19+575.055C490.513+578.131+484.252+579.67+477.405+579.67ZM477.405+566.8C481.218+566.8+484.793+565.89+488.13+564.07C491.467+562.25+494.175+559.52+496.255+555.88C498.335+552.24+499.375+547.82+499.375+542.62C499.375+537.42+498.378+533.021+496.385+529.425C494.392+525.828+491.748+523.12+488.455+521.3C485.162+519.48+481.608+518.57+477.795+518.57C473.982+518.57+470.45+519.48+467.2+521.3C463.95+523.12+461.372+525.828+459.465+529.425C457.558+533.021+456.605+537.42+456.605+542.62C456.605+550.333+458.577+556.291+462.52+560.495C466.463+564.698+471.425+566.8+477.405+566.8Z" fill="#76daf9"/>
<path d="M546.565+518.96L546.565+558.61C546.565+561.296+547.193+563.225+548.45+564.395C549.707+565.565+551.852+566.15+554.885+566.15L563.985+566.15L563.985+578.5L552.285+578.5C545.612+578.5+540.498+576.94+536.945+573.82C533.392+570.7+531.615+565.63+531.615+558.61L531.615+518.96L531.615+506.87L531.615+489.06L546.565+489.06L546.565+506.87L563.985+506.87L563.985+518.96L546.565+518.96Z" opacity="1" fill="#76daf9"/>
<path opacity="1" fill="#76daf9" d="M643.285+540.93C643.285+543.616+643.112+546.043+642.765+548.21L588.035+548.21C588.468+553.93+590.592+558.523+594.405+561.99C598.218+565.456+602.898+567.19+608.445+567.19C616.418+567.19+622.052+563.853+625.345+557.18L641.335+557.18C639.168+563.766+635.247+569.161+629.57+573.365C623.893+577.568+616.852+579.67+608.445+579.67C601.598+579.67+595.467+578.131+590.05+575.055C584.633+571.978+580.387+567.645+577.31+562.055C574.233+556.465+572.695+549.986+572.695+542.62C572.695+535.253+574.19+528.775+577.18+523.185C580.17+517.595+584.373+513.283+589.79+510.25C595.207+507.216+601.425+505.7+608.445+505.7C615.205+505.7+621.228+507.173+626.515+510.12C631.802+513.066+635.918+517.205+638.865+522.535C641.812+527.865+643.285+533.996+643.285+540.93ZM627.815+536.25C627.728+530.79+625.778+526.413+621.965+523.12C618.152+519.826+613.428+518.18+607.795+518.18C602.682+518.18+598.305+519.805+594.665+523.055C591.025+526.305+588.858+530.703+588.165+536.25L627.815+536.25Z"/>
<path fill="#76daf9" d="M652.905+542.62C652.905+535.253+654.4+528.775+657.39+523.185C660.38+517.595+664.518+513.283+669.805+510.25C675.092+507.216+681.158+505.7+688.005+505.7C696.672+505.7+703.843+507.758+709.52+511.875C715.197+515.991+719.032+521.863+721.025+529.49L705.035+529.49C703.735+525.936+701.655+523.163+698.795+521.17C695.935+519.176+692.338+518.18+688.005+518.18C681.938+518.18+677.107+520.325+673.51+524.615C669.913+528.905+668.115+534.906+668.115+542.62C668.115+550.333+669.913+556.356+673.51+560.69C677.107+565.023+681.938+567.19+688.005+567.19C696.585+567.19+702.262+563.42+705.035+555.88L721.025+555.88C718.945+563.16+715.045+568.945+709.325+573.235C703.605+577.525+696.498+579.67+688.005+579.67C681.158+579.67+675.092+578.131+669.805+575.055C664.518+571.978+660.38+567.645+657.39+562.055C654.4+556.465+652.905+549.986+652.905+542.62Z" opacity="1"/>
<path fill="#76daf9" d="M772.895+505.7C778.355+505.7+783.23+506.87+787.52+509.21C791.81+511.55+795.19+515.016+797.66+519.61C800.13+524.203+801.365+529.75+801.365+536.25L801.365+578.5L786.675+578.5L786.675+538.46C786.675+532.046+785.072+527.128+781.865+523.705C778.658+520.281+774.282+518.57+768.735+518.57C763.188+518.57+758.79+520.281+755.54+523.705C752.29+527.128+750.665+532.046+750.665+538.46L750.665+578.5L735.845+578.5L735.845+482.3L750.665+482.3L750.665+515.19C753.178+512.156+756.363+509.816+760.22+508.17C764.077+506.523+768.302+505.7+772.895+505.7Z" opacity="1"/>
</g>
<g visibility="hidden" id="tinotech white blue text" vectornator:layerName="tinotech white blue text">
<path fill="#ffffff" d="M-36.1818-32.35L1124.43-32.35L1124.43+1134.32L-36.1818+1134.32L-36.1818-32.35Z" opacity="1"/>
<path opacity="1" fill="#76daf9" d="M296.575+518.96L296.575+558.61C296.575+561.296+297.203+563.225+298.46+564.395C299.717+565.565+301.862+566.15+304.895+566.15L313.995+566.15L313.995+578.5L302.295+578.5C295.622+578.5+290.508+576.94+286.955+573.82C283.402+570.7+281.625+565.63+281.625+558.61L281.625+518.96L281.625+506.87L281.625+489.06L296.575+489.06L296.575+506.87L313.995+506.87L313.995+518.96L296.575+518.96Z"/>
<path opacity="1" d="M342.465+506.87L342.465+578.5L327.645+578.5L327.645+506.87L342.465+506.87Z" fill="#76daf9"/>
<path opacity="1" fill="#76daf9" d="M358.958+578.452L358.958+541.939C358.958+531.884+362.293+523.291+368.963+516.159C375.633+509.004+383.681+505.427+393.108+505.427C402.513+505.427+410.55+509.004+417.22+516.159C423.912+523.291+427.258+531.884+427.258+541.939L427.258+578.452L410.183+578.452L410.183+541.939C410.183+536.924+408.505+532.633+405.147+529.067C401.813+525.478+397.799+523.683+393.108+523.683C388.395+523.683+384.371+525.478+381.036+529.067C377.701+532.633+376.033+536.924+376.033+541.939L376.033+578.452L358.958+578.452Z"/>
<path d="M477.405+579.67C470.645+579.67+464.535+578.131+459.075+575.055C453.615+571.978+449.325+567.645+446.205+562.055C443.085+556.465+441.525+549.986+441.525+542.62C441.525+535.34+443.128+528.883+446.335+523.25C449.542+517.616+453.918+513.283+459.465+510.25C465.012+507.216+471.208+505.7+478.055+505.7C484.902+505.7+491.098+507.216+496.645+510.25C502.192+513.283+506.568+517.616+509.775+523.25C512.982+528.883+514.585+535.34+514.585+542.62C514.585+549.9+512.938+556.356+509.645+561.99C506.352+567.623+501.867+571.978+496.19+575.055C490.513+578.131+484.252+579.67+477.405+579.67ZM477.405+566.8C481.218+566.8+484.793+565.89+488.13+564.07C491.467+562.25+494.175+559.52+496.255+555.88C498.335+552.24+499.375+547.82+499.375+542.62C499.375+537.42+498.378+533.021+496.385+529.425C494.392+525.828+491.748+523.12+488.455+521.3C485.162+519.48+481.608+518.57+477.795+518.57C473.982+518.57+470.45+519.48+467.2+521.3C463.95+523.12+461.372+525.828+459.465+529.425C457.558+533.021+456.605+537.42+456.605+542.62C456.605+550.333+458.577+556.291+462.52+560.495C466.463+564.698+471.425+566.8+477.405+566.8Z" opacity="1" fill="#76daf9"/>
<path d="M546.565+518.96L546.565+558.61C546.565+561.296+547.193+563.225+548.45+564.395C549.707+565.565+551.852+566.15+554.885+566.15L563.985+566.15L563.985+578.5L552.285+578.5C545.612+578.5+540.498+576.94+536.945+573.82C533.392+570.7+531.615+565.63+531.615+558.61L531.615+518.96L531.615+506.87L531.615+489.06L546.565+489.06L546.565+506.87L563.985+506.87L563.985+518.96L546.565+518.96Z" fill="#76daf9" opacity="1"/>
<path opacity="1" d="M643.285+540.93C643.285+543.616+643.112+546.043+642.765+548.21L588.035+548.21C588.468+553.93+590.592+558.523+594.405+561.99C598.218+565.456+602.898+567.19+608.445+567.19C616.418+567.19+622.052+563.853+625.345+557.18L641.335+557.18C639.168+563.766+635.247+569.161+629.57+573.365C623.893+577.568+616.852+579.67+608.445+579.67C601.598+579.67+595.467+578.131+590.05+575.055C584.633+571.978+580.387+567.645+577.31+562.055C574.233+556.465+572.695+549.986+572.695+542.62C572.695+535.253+574.19+528.775+577.18+523.185C580.17+517.595+584.373+513.283+589.79+510.25C595.207+507.216+601.425+505.7+608.445+505.7C615.205+505.7+621.228+507.173+626.515+510.12C631.802+513.066+635.918+517.205+638.865+522.535C641.812+527.865+643.285+533.996+643.285+540.93ZM627.815+536.25C627.728+530.79+625.778+526.413+621.965+523.12C618.152+519.826+613.428+518.18+607.795+518.18C602.682+518.18+598.305+519.805+594.665+523.055C591.025+526.305+588.858+530.703+588.165+536.25L627.815+536.25Z" fill="#76daf9"/>
<path opacity="1" d="M652.905+542.62C652.905+535.253+654.4+528.775+657.39+523.185C660.38+517.595+664.518+513.283+669.805+510.25C675.092+507.216+681.158+505.7+688.005+505.7C696.672+505.7+703.843+507.758+709.52+511.875C715.197+515.991+719.032+521.863+721.025+529.49L705.035+529.49C703.735+525.936+701.655+523.163+698.795+521.17C695.935+519.176+692.338+518.18+688.005+518.18C681.938+518.18+677.107+520.325+673.51+524.615C669.913+528.905+668.115+534.906+668.115+542.62C668.115+550.333+669.913+556.356+673.51+560.69C677.107+565.023+681.938+567.19+688.005+567.19C696.585+567.19+702.262+563.42+705.035+555.88L721.025+555.88C718.945+563.16+715.045+568.945+709.325+573.235C703.605+577.525+696.498+579.67+688.005+579.67C681.158+579.67+675.092+578.131+669.805+575.055C664.518+571.978+660.38+567.645+657.39+562.055C654.4+556.465+652.905+549.986+652.905+542.62Z" fill="#76daf9"/>
<path opacity="1" fill="#76daf9" d="M772.895+505.7C778.355+505.7+783.23+506.87+787.52+509.21C791.81+511.55+795.19+515.016+797.66+519.61C800.13+524.203+801.365+529.75+801.365+536.25L801.365+578.5L786.675+578.5L786.675+538.46C786.675+532.046+785.072+527.128+781.865+523.705C778.658+520.281+774.282+518.57+768.735+518.57C763.188+518.57+758.79+520.281+755.54+523.705C752.29+527.128+750.665+532.046+750.665+538.46L750.665+578.5L735.845+578.5L735.845+482.3L750.665+482.3L750.665+515.19C753.178+512.156+756.363+509.816+760.22+508.17C764.077+506.523+768.302+505.7+772.895+505.7Z"/>
</g>
<g id="tinotech dark blue text" vectornator:layerName="tinotech dark blue text">
<path d="M-36.1818-32.35L1124.43-32.35L1124.43+1134.32L-36.1818+1134.32L-36.1818-32.35Z" opacity="1" fill="#000000"/>
<path opacity="1" d="M296.575+518.96L296.575+558.61C296.575+561.296+297.203+563.225+298.46+564.395C299.717+565.565+301.862+566.15+304.895+566.15L313.995+566.15L313.995+578.5L302.295+578.5C295.622+578.5+290.508+576.94+286.955+573.82C283.402+570.7+281.625+565.63+281.625+558.61L281.625+518.96L281.625+506.87L281.625+489.06L296.575+489.06L296.575+506.87L313.995+506.87L313.995+518.96L296.575+518.96Z" fill="#04cfff"/>
<path fill="#04cfff" opacity="1" d="M342.465+506.87L342.465+578.5L327.645+578.5L327.645+506.87L342.465+506.87Z"/>
<path fill="#04cfff" opacity="1" d="M358.958+578.452L358.958+541.939C358.958+531.884+362.293+523.291+368.963+516.159C375.633+509.004+383.681+505.427+393.108+505.427C402.513+505.427+410.55+509.004+417.22+516.159C423.912+523.291+427.258+531.884+427.258+541.939L427.258+578.452L410.183+578.452L410.183+541.939C410.183+536.924+408.505+532.633+405.147+529.067C401.813+525.478+397.799+523.683+393.108+523.683C388.395+523.683+384.371+525.478+381.036+529.067C377.701+532.633+376.033+536.924+376.033+541.939L376.033+578.452L358.958+578.452Z"/>
<path fill="#04cfff" d="M477.405+579.67C470.645+579.67+464.535+578.131+459.075+575.055C453.615+571.978+449.325+567.645+446.205+562.055C443.085+556.465+441.525+549.986+441.525+542.62C441.525+535.34+443.128+528.883+446.335+523.25C449.542+517.616+453.918+513.283+459.465+510.25C465.012+507.216+471.208+505.7+478.055+505.7C484.902+505.7+491.098+507.216+496.645+510.25C502.192+513.283+506.568+517.616+509.775+523.25C512.982+528.883+514.585+535.34+514.585+542.62C514.585+549.9+512.938+556.356+509.645+561.99C506.352+567.623+501.867+571.978+496.19+575.055C490.513+578.131+484.252+579.67+477.405+579.67ZM477.405+566.8C481.218+566.8+484.793+565.89+488.13+564.07C491.467+562.25+494.175+559.52+496.255+555.88C498.335+552.24+499.375+547.82+499.375+542.62C499.375+537.42+498.378+533.021+496.385+529.425C494.392+525.828+491.748+523.12+488.455+521.3C485.162+519.48+481.608+518.57+477.795+518.57C473.982+518.57+470.45+519.48+467.2+521.3C463.95+523.12+461.372+525.828+459.465+529.425C457.558+533.021+456.605+537.42+456.605+542.62C456.605+550.333+458.577+556.291+462.52+560.495C466.463+564.698+471.425+566.8+477.405+566.8Z" opacity="1"/>
<path opacity="1" fill="#04cfff" d="M546.565+518.96L546.565+558.61C546.565+561.296+547.193+563.225+548.45+564.395C549.707+565.565+551.852+566.15+554.885+566.15L563.985+566.15L563.985+578.5L552.285+578.5C545.612+578.5+540.498+576.94+536.945+573.82C533.392+570.7+531.615+565.63+531.615+558.61L531.615+518.96L531.615+506.87L531.615+489.06L546.565+489.06L546.565+506.87L563.985+506.87L563.985+518.96L546.565+518.96Z"/>
<path fill="#04cfff" opacity="1" d="M643.285+540.93C643.285+543.616+643.112+546.043+642.765+548.21L588.035+548.21C588.468+553.93+590.592+558.523+594.405+561.99C598.218+565.456+602.898+567.19+608.445+567.19C616.418+567.19+622.052+563.853+625.345+557.18L641.335+557.18C639.168+563.766+635.247+569.161+629.57+573.365C623.893+577.568+616.852+579.67+608.445+579.67C601.598+579.67+595.467+578.131+590.05+575.055C584.633+571.978+580.387+567.645+577.31+562.055C574.233+556.465+572.695+549.986+572.695+542.62C572.695+535.253+574.19+528.775+577.18+523.185C580.17+517.595+584.373+513.283+589.79+510.25C595.207+507.216+601.425+505.7+608.445+505.7C615.205+505.7+621.228+507.173+626.515+510.12C631.802+513.066+635.918+517.205+638.865+522.535C641.812+527.865+643.285+533.996+643.285+540.93ZM627.815+536.25C627.728+530.79+625.778+526.413+621.965+523.12C618.152+519.826+613.428+518.18+607.795+518.18C602.682+518.18+598.305+519.805+594.665+523.055C591.025+526.305+588.858+530.703+588.165+536.25L627.815+536.25Z"/>
<path fill="#04cfff" d="M652.905+542.62C652.905+535.253+654.4+528.775+657.39+523.185C660.38+517.595+664.518+513.283+669.805+510.25C675.092+507.216+681.158+505.7+688.005+505.7C696.672+505.7+703.843+507.758+709.52+511.875C715.197+515.991+719.032+521.863+721.025+529.49L705.035+529.49C703.735+525.936+701.655+523.163+698.795+521.17C695.935+519.176+692.338+518.18+688.005+518.18C681.938+518.18+677.107+520.325+673.51+524.615C669.913+528.905+668.115+534.906+668.115+542.62C668.115+550.333+669.913+556.356+673.51+560.69C677.107+565.023+681.938+567.19+688.005+567.19C696.585+567.19+702.262+563.42+705.035+555.88L721.025+555.88C718.945+563.16+715.045+568.945+709.325+573.235C703.605+577.525+696.498+579.67+688.005+579.67C681.158+579.67+675.092+578.131+669.805+575.055C664.518+571.978+660.38+567.645+657.39+562.055C654.4+556.465+652.905+549.986+652.905+542.62Z" opacity="1"/>
<path opacity="1" d="M772.895+505.7C778.355+505.7+783.23+506.87+787.52+509.21C791.81+511.55+795.19+515.016+797.66+519.61C800.13+524.203+801.365+529.75+801.365+536.25L801.365+578.5L786.675+578.5L786.675+538.46C786.675+532.046+785.072+527.128+781.865+523.705C778.658+520.281+774.282+518.57+768.735+518.57C763.188+518.57+758.79+520.281+755.54+523.705C752.29+527.128+750.665+532.046+750.665+538.46L750.665+578.5L735.845+578.5L735.845+482.3L750.665+482.3L750.665+515.19C753.178+512.156+756.363+509.816+760.22+508.17C764.077+506.523+768.302+505.7+772.895+505.7Z" fill="#04cfff"/>
</g>
</svg>
